<svg width="24" height="24" viewBox="0 0 24 24" fill="none" xmlns="http://www.w3.org/2000/svg">
<path d="M5.25 7.125C5.25 6.42881 5.52656 5.76113 6.01884 5.26884C6.51113 4.77656 7.17881 4.5 7.875 4.5C8.57119 4.5 9.23887 4.77656 9.73116 5.26884C10.2234 5.76113 10.5 6.42881 10.5 7.125C10.5 7.82119 10.2234 8.48887 9.73116 8.98116C9.23887 9.47344 8.57119 9.75 7.875 9.75C7.17881 9.75 6.51113 9.47344 6.01884 8.98116C5.52656 8.48887 5.25 7.82119 5.25 7.125ZM7.875 3C6.78098 3 5.73177 3.4346 4.95818 4.20818C4.1846 4.98177 3.75 6.03098 3.75 7.125C3.75 8.21902 4.1846 9.26823 4.95818 10.0418C5.73177 10.8154 6.78098 11.25 7.875 11.25C8.96902 11.25 10.0182 10.8154 10.7918 10.0418C11.5654 9.26823 12 8.21902 12 7.125C12 6.03098 11.5654 4.98177 10.7918 4.20818C10.0182 3.4346 8.96902 3 7.875 3ZM15.75 8.25C15.75 7.85218 15.908 7.47064 16.1893 7.18934C16.4706 6.90804 16.8522 6.75 17.25 6.75C17.6478 6.75 18.0294 6.90804 18.3107 7.18934C18.592 7.47064 18.75 7.85218 18.75 8.25C18.75 8.64782 18.592 9.02936 18.3107 9.31066C18.0294 9.59196 17.6478 9.75 17.25 9.75C16.8522 9.75 16.4706 9.59196 16.1893 9.31066C15.908 9.02936 15.75 8.64782 15.75 8.25ZM17.25 5.25C16.4544 5.25 15.6913 5.56607 15.1287 6.12868C14.5661 6.69129 14.25 7.45435 14.25 8.25C14.25 9.04565 14.5661 9.80871 15.1287 10.3713C15.6913 10.9339 16.4544 11.25 17.25 11.25C18.0456 11.25 18.8087 10.9339 19.3713 10.3713C19.9339 9.80871 20.25 9.04565 20.25 8.25C20.25 7.45435 19.9339 6.69129 19.3713 6.12868C18.8087 5.56607 18.0456 5.25 17.25 5.25ZM12 12.75C12.2902 12.75 12.5678 12.8048 12.822 12.9053C12.369 13.2988 11.9705 13.7511 11.637 14.25H3.75C3.55109 14.25 3.36032 14.329 3.21967 14.4697C3.07902 14.6103 3 14.8011 3 15V15.1425C3 15.1555 3.00225 15.179 3.00675 15.213C3.01425 15.2805 3.03 15.3855 3.06375 15.516C3.13125 15.777 3.2685 16.1295 3.5445 16.4843C4.07325 17.1623 5.235 18 7.875 18C9 18 9.85725 17.8477 10.5105 17.6205C10.4813 18.1365 10.5115 18.6541 10.6005 19.1632C9.846 19.3755 8.94675 19.5 7.875 19.5C4.89 19.5 3.24 18.5325 2.36175 17.406C2.01192 16.9577 1.75677 16.4431 1.61175 15.8932C1.55486 15.6725 1.51821 15.4471 1.50225 15.2197L1.50075 15.1695V15.1522L1.5 15.1462V15C1.5 14.4033 1.73705 13.831 2.15901 13.409C2.58097 12.9871 3.15326 12.75 3.75 12.75H12ZM17.25 23.625C18.7418 23.625 20.1726 23.0324 21.2275 21.9775C22.2824 20.9226 22.875 19.4918 22.875 18C22.875 16.5082 22.2824 15.0774 21.2275 14.0225C20.1726 12.9676 18.7418 12.375 17.25 12.375C15.7582 12.375 14.3274 12.9676 13.2725 14.0225C12.2176 15.0774 11.625 16.5082 11.625 18C11.625 19.4918 12.2176 20.9226 13.2725 21.9775C14.3274 23.0324 15.7582 23.625 17.25 23.625ZM18 14.4375V17.25H20.8125C20.9617 17.25 21.1048 17.3093 21.2102 17.4148C21.3157 17.5202 21.375 17.6633 21.375 17.8125C21.375 17.9617 21.3157 18.1048 21.2102 18.2102C21.1048 18.3157 20.9617 18.375 20.8125 18.375H18V21.1875C18 21.3367 17.9407 21.4798 17.8352 21.5852C17.7298 21.6907 17.5867 21.75 17.4375 21.75C17.2883 21.75 17.1452 21.6907 17.0398 21.5852C16.9343 21.4798 16.875 21.3367 16.875 21.1875V18.375H14.0625C13.9133 18.375 13.7702 18.3157 13.6648 18.2102C13.5593 18.1048 13.5 17.9617 13.5 17.8125C13.5 17.6633 13.5593 17.5202 13.6648 17.4148C13.7702 17.3093 13.9133 17.25 14.0625 17.25H16.875V14.4375C16.875 14.2883 16.9343 14.1452 17.0398 14.0398C17.1452 13.9343 17.2883 13.875 17.4375 13.875C17.5867 13.875 17.7298 13.9343 17.8352 14.0398C17.9407 14.1452 18 14.2883 18 14.4375Z" fill="black"/>
</svg>
