<svg width="40" height="40" viewBox="0 0 40 40" fill="none" xmlns="http://www.w3.org/2000/svg">
<path d="M0 20C0 8.95431 8.95431 0 20 0C31.0457 0 40 8.95431 40 20C40 31.0457 31.0457 40 20 40C8.95431 40 0 31.0457 0 20Z" fill="#E7E7F9"/>
<path d="M11.6959 27.2C9.59586 27.2 8.25586 26.16 7.37586 24.72L8.51586 23.74C9.37586 25.04 10.2559 25.74 11.7159 25.74C13.2959 25.74 14.4559 24.6 14.4559 22.38V13H16.0559V22.36C16.0559 24.02 15.5759 25.24 14.7759 26.04C13.9759 26.82 12.9559 27.2 11.6959 27.2ZM19.7905 27V13H25.7505C27.3505 13 28.6105 13.46 29.4105 14.24C30.0105 14.86 30.3105 15.62 30.3105 16.48V16.52C30.3105 18.34 29.1905 19.28 28.0905 19.76C29.7505 20.24 31.0905 21.24 31.0905 23.14V23.18C31.0905 25.58 29.0705 27 26.0105 27H19.7905ZM28.7105 16.74V16.7C28.7105 15.32 27.6105 14.42 25.6105 14.42H21.3505V19.24H25.4905C27.4105 19.24 28.7105 18.4 28.7105 16.74ZM29.4905 23.08V23.04C29.4905 21.52 28.2305 20.64 25.7705 20.64H21.3505V25.58H26.0505C28.1905 25.58 29.4905 24.66 29.4905 23.08Z" fill="#1D1B1F"/>
</svg>
