<svg width="72" height="20" viewBox="0 0 72 20" fill="none" xmlns="http://www.w3.org/2000/svg">
<path d="M0.335938 19.5V0.939453H4.27148V16.25H11.7998V19.5H0.335938ZM31.8838 10.1943C31.8838 11.6247 31.7061 12.9281 31.3506 14.1045C30.9951 15.2725 30.4535 16.2796 29.7256 17.126C29.0062 17.9723 28.0921 18.624 26.9834 19.0811C25.8747 19.5296 24.5628 19.7539 23.0479 19.7539C21.5329 19.7539 20.221 19.5296 19.1123 19.0811C18.0036 18.624 17.0853 17.9723 16.3574 17.126C15.638 16.2796 15.1006 15.2682 14.7451 14.0918C14.3896 12.9154 14.2119 11.6077 14.2119 10.1689C14.2119 8.24772 14.5251 6.57617 15.1514 5.1543C15.7861 3.72396 16.7594 2.61523 18.0713 1.82812C19.3831 1.04102 21.0505 0.647461 23.0732 0.647461C25.0876 0.647461 26.7422 1.04102 28.0371 1.82812C29.3405 2.61523 30.3053 3.72396 30.9316 5.1543C31.5664 6.58464 31.8838 8.26465 31.8838 10.1943ZM18.3379 10.1943C18.3379 11.4893 18.4987 12.6064 18.8203 13.5459C19.1504 14.4769 19.6624 15.1963 20.3564 15.7041C21.0505 16.2035 21.9476 16.4531 23.0479 16.4531C24.165 16.4531 25.0706 16.2035 25.7646 15.7041C26.4587 15.1963 26.9622 14.4769 27.2754 13.5459C27.597 12.6064 27.7578 11.4893 27.7578 10.1943C27.7578 8.24772 27.3939 6.71582 26.666 5.59863C25.9382 4.48145 24.7406 3.92285 23.0732 3.92285C21.9645 3.92285 21.0589 4.17676 20.3564 4.68457C19.6624 5.18392 19.1504 5.90332 18.8203 6.84277C18.4987 7.77376 18.3379 8.89095 18.3379 10.1943ZM42.7764 9.07715H50.1396V18.7002C49.1663 19.0218 48.1549 19.2799 47.1055 19.4746C46.056 19.6608 44.8669 19.7539 43.5381 19.7539C41.693 19.7539 40.1273 19.39 38.8408 18.6621C37.5544 17.9342 36.5768 16.8594 35.9082 15.4375C35.2396 14.0156 34.9053 12.2679 34.9053 10.1943C34.9053 8.24772 35.2777 6.56348 36.0225 5.1416C36.7757 3.71973 37.8717 2.61947 39.3105 1.84082C40.7578 1.06217 42.5225 0.672852 44.6045 0.672852C45.5863 0.672852 46.5553 0.778646 47.5117 0.990234C48.4681 1.20182 49.3356 1.47689 50.1143 1.81543L48.8066 4.96387C48.2396 4.67611 47.5921 4.4349 46.8643 4.24023C46.1364 4.04557 45.3747 3.94824 44.5791 3.94824C43.4365 3.94824 42.4421 4.21061 41.5957 4.73535C40.7578 5.26009 40.1061 5.99642 39.6406 6.94434C39.1836 7.88379 38.9551 8.99251 38.9551 10.2705C38.9551 11.4808 39.1201 12.5557 39.4502 13.4951C39.7803 14.4261 40.3008 15.1582 41.0117 15.6914C41.7227 16.2161 42.6494 16.4785 43.792 16.4785C44.3506 16.4785 44.8203 16.4531 45.2012 16.4023C45.5905 16.3431 45.9544 16.2839 46.293 16.2246V12.3525H42.7764V9.07715ZM71.417 10.1943C71.417 11.6247 71.2393 12.9281 70.8838 14.1045C70.5283 15.2725 69.9867 16.2796 69.2588 17.126C68.5394 17.9723 67.6253 18.624 66.5166 19.0811C65.4079 19.5296 64.096 19.7539 62.5811 19.7539C61.0661 19.7539 59.7542 19.5296 58.6455 19.0811C57.5368 18.624 56.6185 17.9723 55.8906 17.126C55.1712 16.2796 54.6338 15.2682 54.2783 14.0918C53.9229 12.9154 53.7451 11.6077 53.7451 10.1689C53.7451 8.24772 54.0583 6.57617 54.6846 5.1543C55.3193 3.72396 56.2926 2.61523 57.6045 1.82812C58.9163 1.04102 60.5837 0.647461 62.6064 0.647461C64.6208 0.647461 66.2754 1.04102 67.5703 1.82812C68.8737 2.61523 69.8385 3.72396 70.4648 5.1543C71.0996 6.58464 71.417 8.26465 71.417 10.1943ZM57.8711 10.1943C57.8711 11.4893 58.0319 12.6064 58.3535 13.5459C58.6836 14.4769 59.1956 15.1963 59.8896 15.7041C60.5837 16.2035 61.4808 16.4531 62.5811 16.4531C63.6982 16.4531 64.6038 16.2035 65.2979 15.7041C65.9919 15.1963 66.4954 14.4769 66.8086 13.5459C67.1302 12.6064 67.291 11.4893 67.291 10.1943C67.291 8.24772 66.9271 6.71582 66.1992 5.59863C65.4714 4.48145 64.2738 3.92285 62.6064 3.92285C61.4977 3.92285 60.5921 4.17676 59.8896 4.68457C59.1956 5.18392 58.6836 5.90332 58.3535 6.84277C58.0319 7.77376 57.8711 8.89095 57.8711 10.1943Z" fill="white"/>
</svg>
