<svg width="192" height="32" viewBox="0 0 192 32" fill="none" xmlns="http://www.w3.org/2000/svg">
<path d="M14.0979 5.8541C14.6966 4.01148 17.3034 4.01148 17.9021 5.8541L19.1432 9.67376C19.4109 10.4978 20.1789 11.0557 21.0453 11.0557H25.0615C26.999 11.0557 27.8045 13.535 26.2371 14.6738L22.9879 17.0344C22.2869 17.5437 21.9936 18.4465 22.2614 19.2705L23.5024 23.0902C24.1012 24.9328 21.9922 26.465 20.4248 25.3262L17.1756 22.9656C16.4746 22.4563 15.5254 22.4563 14.8244 22.9656L11.5752 25.3262C10.0078 26.465 7.89885 24.9328 8.49755 23.0902L9.73863 19.2705C10.0064 18.4465 9.71306 17.5437 9.01209 17.0344L5.76289 14.6738C4.19546 13.535 5.00102 11.0557 6.93846 11.0557H10.9547C11.8211 11.0557 12.5891 10.4978 12.8568 9.67376L14.0979 5.8541Z" fill="#FFE100"/>
<path d="M54.0979 5.8541C54.6966 4.01148 57.3034 4.01148 57.9021 5.8541L59.1432 9.67376C59.4109 10.4978 60.1789 11.0557 61.0453 11.0557H65.0615C66.999 11.0557 67.8045 13.535 66.2371 14.6738L62.9879 17.0344C62.2869 17.5437 61.9936 18.4465 62.2614 19.2705L63.5024 23.0902C64.1012 24.9328 61.9922 26.465 60.4248 25.3262L57.1756 22.9656C56.4746 22.4563 55.5254 22.4563 54.8244 22.9656L51.5752 25.3262C50.0078 26.465 47.8988 24.9328 48.4976 23.0902L49.7386 19.2705C50.0064 18.4465 49.7131 17.5437 49.0121 17.0344L45.7629 14.6738C44.1955 13.535 45.001 11.0557 46.9385 11.0557H50.9547C51.8211 11.0557 52.5891 10.4978 52.8568 9.67376L54.0979 5.8541Z" fill="#FFE100"/>
<path d="M94.0979 5.8541C94.6966 4.01148 97.3034 4.01148 97.9021 5.8541L99.1432 9.67376C99.4109 10.4978 100.179 11.0557 101.045 11.0557H105.062C106.999 11.0557 107.805 13.535 106.237 14.6738L102.988 17.0344C102.287 17.5437 101.994 18.4465 102.261 19.2705L103.502 23.0902C104.101 24.9328 101.992 26.465 100.425 25.3262L97.1756 22.9656C96.4746 22.4563 95.5254 22.4563 94.8244 22.9656L91.5752 25.3262C90.0078 26.465 87.8988 24.9328 88.4976 23.0902L89.7386 19.2705C90.0064 18.4465 89.7131 17.5437 89.0121 17.0344L85.7629 14.6738C84.1955 13.535 85.001 11.0557 86.9385 11.0557H90.9547C91.8211 11.0557 92.5891 10.4978 92.8568 9.67376L94.0979 5.8541Z" fill="#FFE100"/>
<path d="M134.098 5.8541C134.697 4.01148 137.303 4.01148 137.902 5.8541L139.143 9.67376C139.411 10.4978 140.179 11.0557 141.045 11.0557H145.062C146.999 11.0557 147.805 13.535 146.237 14.6738L142.988 17.0344C142.287 17.5437 141.994 18.4465 142.261 19.2705L143.502 23.0902C144.101 24.9328 141.992 26.465 140.425 25.3262L137.176 22.9656C136.475 22.4563 135.525 22.4563 134.824 22.9656L131.575 25.3262C130.008 26.465 127.899 24.9328 128.498 23.0902L129.739 19.2705C130.006 18.4465 129.713 17.5437 129.012 17.0344L125.763 14.6738C124.195 13.535 125.001 11.0557 126.938 11.0557H130.955C131.821 11.0557 132.589 10.4978 132.857 9.67376L134.098 5.8541Z" fill="#FFE100"/>
<path d="M174.098 5.8541C174.697 4.01148 177.303 4.01148 177.902 5.8541L179.143 9.67376C179.411 10.4978 180.179 11.0557 181.045 11.0557H185.062C186.999 11.0557 187.805 13.535 186.237 14.6738L182.988 17.0344C182.287 17.5437 181.994 18.4465 182.261 19.2705L183.502 23.0902C184.101 24.9328 181.992 26.465 180.425 25.3262L177.176 22.9656C176.475 22.4563 175.525 22.4563 174.824 22.9656L171.575 25.3262C170.008 26.465 167.899 24.9328 168.498 23.0902L169.739 19.2705C170.006 18.4465 169.713 17.5437 169.012 17.0344L165.763 14.6738C164.195 13.535 165.001 11.0557 166.938 11.0557H170.955C171.821 11.0557 172.589 10.4978 172.857 9.67376L174.098 5.8541Z" fill="#FFE100"/>
</svg>
